{"title":"Dinosaur[2000]DVDRip[Eng]Pro2kon (TG-Team)-ExtraTorrent","uid":5401547,"size":1406512192,"categoryP":"video","categoryS":"movies","magnet":"?xt=urn:btih:79a4da673ff98b8268c7fa3f89bc06bd74597a5a&amp;dn=Dinosaur%5B2000%5DDVDRip%5BEng%5DPro2kon+%28TG-Team%29-ExtraTorrent&amp;tr=udp%3A%2F%2Ftracker.openbittorrent.com%3A80&amp;tr=udp%3A%2F%2Fopen.demonii.com%3A1337&amp;tr=udp%3A%2F%2Ftracker.coppersurfer.tk%3A6969&amp;tr=udp%3A%2F%2Fexodus.desync.com%3A6969","seeders":1,"leechers":0,"uploader":"SaM","files":7,"time":1267402666,"description":"extratorrent.com &lt;a href=&quot;\nhttp://extratorrent.com/torrent/2191039/&quot; rel=&quot;nofollow&quot; target=&quot;_NEW&quot;&gt;\nhttp://extratorrent.com/torrent/2191039/&lt;/a&gt;\n\nFormat : AVI\nFormat/Info : Audio Video Interleave\nFile size : 1.31 GiB\nDuration : 1h 21mn\nOverall bit rate : 2 284 Kbps\nWriting application : VirtualDubMod 1.5.4.1 (build 2178/release)\nWriting library : VirtualDubMod build 2178/release\n\nVideo\nID : 0\nFormat : MPEG-4 Visual\nFormat profile : Simple@L0\nFormat settings, BVOP : No\nFormat settings, QPel : No\nFormat settings, GMC : No warppoints\nFormat settings, Matrix : Default (H.263)\nCodec ID : XVID\nCodec ID/Hint : XviD\nDuration : 1h 21mn\nBit rate : 1 829 Kbps\nWidth : 720 pixels\nHeight : 384 pixels\nDisplay aspect ratio : 1.875\nFrame rate : 23.976 fps\nResolution : 8 bits\nColorimetry : 4:2:0\nScan type : Progressive\nBits/(Pixel*Frame) : 0.276\nStream size : 1.05 GiB (80%)\nWriting library : XviD 1.0.1 (UTC 2004-06-05)\n\n\nAudio\nID : 1\nFormat : AC-3\nFormat/Info : Audio Coding 3\nCodec ID : 2000\nDuration : 1h 21mn\nBit rate mode : Constant\nBit rate : 448 Kbps\nChannel(s) : 6 channels\nChannel positions : Front: L C R, Surround: L R, LFE\nSampling rate : 48.0 KHz\nStream size : 263 MiB (20%)\nAlignment : Split accross interleaves\nInterleave, duration : 83 ms (2.00 video frames)\nInterleave, preload duration : 500 ms\nLanguage : English\n\n\nEncoders Notes: The film are Ps3, Xbox 360 &amp; PC Friendly.They can also be burnt to disc via programs like Convert X to DVD.\n\nPLOT:An orphaned dinosaur raised by lemurs joins an arduous trek to a sancturary after a meteorite shower destroys his family home","torrent":{"xt":"urn:btih:79a4da673ff98b8268c7fa3f89bc06bd74597a5a","amp;dn":"Dinosaur%5B2000%5DDVDRip%5BEng%5DPro2kon+%28TG-Team%29-ExtraTorrent","amp;tr":["udp%3A%2F%2Ftracker.openbittorrent.com%3A80","udp%3A%2F%2Fopen.demonii.com%3A1337","udp%3A%2F%2Ftracker.coppersurfer.tk%3A6969","udp%3A%2F%2Fexodus.desync.com%3A6969"],"infoHash":"79a4da673ff98b8268c7fa3f89bc06bd74597a5a","infoHashBuffer":{"type":"Buffer","data":[121,164,218,103,63,249,139,130,104,199,250,63,137,188,6,189,116,89,122,90]},"announce":[],"urlList":[]}}